<?xml version="1.0" encoding="UTF-8"?>
<svg xmlns="http://www.w3.org/2000/svg" version="1.1" width="100" height="100" viewBox="0 0 100 100"><rect x="0" y="0" width="100" height="100" fill="#fefefe"/><g transform="scale(1.37)"><g transform="translate(4,4)"><path fill-rule="evenodd" d="M9 0L9 1L8 1L8 2L9 2L9 3L8 3L8 4L9 4L9 5L8 5L8 7L9 7L9 8L6 8L6 9L7 9L7 10L5 10L5 8L0 8L0 10L2 10L2 9L4 9L4 10L3 10L3 11L5 11L5 12L2 12L2 11L1 11L1 13L0 13L0 14L1 14L1 15L0 15L0 16L1 16L1 18L0 18L0 19L1 19L1 20L0 20L0 24L1 24L1 25L0 25L0 27L1 27L1 28L2 28L2 30L1 30L1 29L0 29L0 30L1 30L1 32L0 32L0 34L1 34L1 36L0 36L0 37L2 37L2 38L0 38L0 40L2 40L2 41L3 41L3 42L4 42L4 43L5 43L5 42L6 42L6 43L7 43L7 42L8 42L8 41L7 41L7 40L8 40L8 39L9 39L9 38L10 38L10 36L9 36L9 34L10 34L10 35L12 35L12 36L11 36L11 37L12 37L12 36L15 36L15 38L14 38L14 37L13 37L13 38L14 38L14 39L16 39L16 37L17 37L17 38L18 38L18 39L19 39L19 38L20 38L20 37L19 37L19 36L20 36L20 33L21 33L21 32L20 32L20 33L19 33L19 31L20 31L20 30L17 30L17 32L16 32L16 31L15 31L15 30L16 30L16 29L15 29L15 28L16 28L16 27L17 27L17 29L20 29L20 26L18 26L18 25L19 25L19 24L20 24L20 25L21 25L21 26L24 26L24 28L23 28L23 29L21 29L21 31L22 31L22 30L23 30L23 31L24 31L24 32L23 32L23 33L22 33L22 34L21 34L21 35L22 35L22 34L23 34L23 35L25 35L25 36L26 36L26 35L25 35L25 34L27 34L27 33L29 33L29 32L30 32L30 35L29 35L29 36L28 36L28 35L27 35L27 37L30 37L30 38L29 38L29 39L28 39L28 38L26 38L26 37L23 37L23 38L24 38L24 39L23 39L23 40L25 40L25 41L24 41L24 42L22 42L22 41L21 41L21 40L22 40L22 38L21 38L21 40L20 40L20 41L19 41L19 40L18 40L18 41L17 41L17 40L16 40L16 41L15 41L15 40L13 40L13 39L12 39L12 38L11 38L11 39L10 39L10 40L9 40L9 44L6 44L6 45L7 45L7 46L5 46L5 44L3 44L3 43L1 43L1 44L0 44L0 45L1 45L1 46L0 46L0 47L1 47L1 48L3 48L3 49L0 49L0 50L2 50L2 51L0 51L0 54L2 54L2 55L3 55L3 56L1 56L1 55L0 55L0 56L1 56L1 57L3 57L3 56L4 56L4 57L5 57L5 56L4 56L4 54L2 54L2 53L1 53L1 52L2 52L2 51L3 51L3 50L4 50L4 49L5 49L5 52L6 52L6 53L5 53L5 55L9 55L9 56L8 56L8 59L9 59L9 58L11 58L11 57L12 57L12 60L11 60L11 59L10 59L10 60L8 60L8 65L9 65L9 64L10 64L10 63L9 63L9 62L10 62L10 61L11 61L11 62L12 62L12 63L11 63L11 65L12 65L12 63L15 63L15 65L19 65L19 63L20 63L20 62L17 62L17 63L18 63L18 64L16 64L16 63L15 63L15 62L16 62L16 61L15 61L15 60L13 60L13 57L12 57L12 56L10 56L10 54L6 54L6 53L9 53L9 51L10 51L10 52L11 52L11 55L13 55L13 53L14 53L14 51L13 51L13 50L12 50L12 49L14 49L14 46L13 46L13 48L11 48L11 50L12 50L12 52L11 52L11 51L10 51L10 49L8 49L8 46L10 46L10 47L9 47L9 48L10 48L10 47L11 47L11 46L12 46L12 45L9 45L9 44L14 44L14 45L16 45L16 46L15 46L15 47L16 47L16 48L15 48L15 49L17 49L17 51L18 51L18 49L19 49L19 50L20 50L20 51L19 51L19 52L20 52L20 53L21 53L21 54L22 54L22 53L23 53L23 57L21 57L21 56L22 56L22 55L20 55L20 54L19 54L19 53L18 53L18 52L15 52L15 53L18 53L18 55L20 55L20 56L18 56L18 57L19 57L19 58L17 58L17 59L16 59L16 60L17 60L17 61L20 61L20 60L19 60L19 59L20 59L20 57L21 57L21 58L22 58L22 59L21 59L21 60L22 60L22 59L24 59L24 60L23 60L23 61L22 61L22 62L21 62L21 64L22 64L22 62L23 62L23 63L24 63L24 64L25 64L25 65L26 65L26 63L25 63L25 61L26 61L26 62L28 62L28 61L26 61L26 60L27 60L27 59L28 59L28 58L25 58L25 57L26 57L26 56L27 56L27 57L29 57L29 56L30 56L30 58L29 58L29 59L30 59L30 60L29 60L29 61L32 61L32 62L31 62L31 63L30 63L30 62L29 62L29 63L30 63L30 64L28 64L28 63L27 63L27 65L32 65L32 64L31 64L31 63L32 63L32 62L33 62L33 63L34 63L34 64L33 64L33 65L34 65L34 64L36 64L36 65L38 65L38 64L37 64L37 63L40 63L40 64L41 64L41 65L44 65L44 64L45 64L45 65L46 65L46 63L47 63L47 62L48 62L48 63L49 63L49 64L47 64L47 65L51 65L51 62L50 62L50 59L52 59L52 60L51 60L51 61L52 61L52 63L54 63L54 65L61 65L61 64L56 64L56 62L57 62L57 63L58 63L58 62L60 62L60 63L61 63L61 62L60 62L60 61L61 61L61 60L62 60L62 61L63 61L63 64L62 64L62 65L63 65L63 64L64 64L64 60L62 60L62 58L63 58L63 59L64 59L64 58L65 58L65 57L64 57L64 54L65 54L65 52L61 52L61 53L59 53L59 52L60 52L60 51L58 51L58 50L59 50L59 49L58 49L58 47L57 47L57 46L60 46L60 50L62 50L62 49L63 49L63 50L65 50L65 49L64 49L64 48L61 48L61 45L59 45L59 44L62 44L62 45L63 45L63 46L64 46L64 45L65 45L65 44L64 44L64 45L63 45L63 44L62 44L62 43L60 43L60 42L61 42L61 41L62 41L62 42L63 42L63 43L64 43L64 42L65 42L65 41L64 41L64 42L63 42L63 40L62 40L62 39L61 39L61 37L63 37L63 36L61 36L61 37L60 37L60 36L59 36L59 35L61 35L61 34L62 34L62 33L63 33L63 34L65 34L65 33L63 33L63 32L64 32L64 31L63 31L63 32L61 32L61 31L62 31L62 29L63 29L63 30L64 30L64 26L65 26L65 25L64 25L64 26L63 26L63 28L61 28L61 27L60 27L60 26L61 26L61 25L62 25L62 23L63 23L63 24L65 24L65 23L64 23L64 22L65 22L65 19L64 19L64 18L65 18L65 17L63 17L63 16L58 16L58 15L61 15L61 13L63 13L63 14L64 14L64 13L63 13L63 12L60 12L60 11L61 11L61 10L62 10L62 11L64 11L64 12L65 12L65 11L64 11L64 8L63 8L63 9L62 9L62 8L61 8L61 10L60 10L60 11L59 11L59 10L58 10L58 12L59 12L59 14L58 14L58 13L57 13L57 11L56 11L56 9L58 9L58 8L56 8L56 9L55 9L55 5L54 5L54 4L56 4L56 5L57 5L57 4L56 4L56 3L57 3L57 1L56 1L56 0L55 0L55 1L56 1L56 3L55 3L55 2L54 2L54 4L53 4L53 5L54 5L54 7L53 7L53 6L52 6L52 8L51 8L51 10L50 10L50 11L47 11L47 10L46 10L46 11L44 11L44 10L43 10L43 9L44 9L44 8L46 8L46 9L50 9L50 7L51 7L51 5L49 5L49 4L50 4L50 3L51 3L51 1L50 1L50 0L47 0L47 1L46 1L46 0L44 0L44 3L43 3L43 2L42 2L42 1L43 1L43 0L40 0L40 1L37 1L37 0L35 0L35 1L36 1L36 4L38 4L38 3L39 3L39 5L38 5L38 7L37 7L37 6L36 6L36 5L35 5L35 3L33 3L33 4L30 4L30 2L31 2L31 3L32 3L32 2L31 2L31 0L29 0L29 1L30 1L30 2L29 2L29 3L28 3L28 1L27 1L27 6L26 6L26 7L27 7L27 6L28 6L28 7L29 7L29 8L27 8L27 11L28 11L28 12L27 12L27 13L28 13L28 14L27 14L27 15L25 15L25 17L24 17L24 15L23 15L23 17L21 17L21 16L22 16L22 14L24 14L24 13L26 13L26 12L25 12L25 11L24 11L24 13L22 13L22 14L21 14L21 13L19 13L19 10L18 10L18 9L21 9L21 6L20 6L20 8L18 8L18 9L17 9L17 8L16 8L16 9L17 9L17 10L16 10L16 13L15 13L15 12L13 12L13 11L14 11L14 10L12 10L12 12L11 12L11 14L12 14L12 13L14 13L14 14L13 14L13 15L11 15L11 16L9 16L9 15L10 15L10 14L9 14L9 12L10 12L10 9L9 9L9 8L10 8L10 7L11 7L11 8L13 8L13 6L12 6L12 5L14 5L14 4L13 4L13 3L12 3L12 5L11 5L11 3L10 3L10 2L12 2L12 1L11 1L11 0ZM13 0L13 2L14 2L14 1L15 1L15 2L17 2L17 3L15 3L15 6L14 6L14 7L15 7L15 6L16 6L16 7L17 7L17 6L16 6L16 4L17 4L17 5L18 5L18 7L19 7L19 5L20 5L20 4L22 4L22 3L21 3L21 2L22 2L22 1L23 1L23 2L25 2L25 3L24 3L24 4L23 4L23 5L24 5L24 8L25 8L25 9L22 9L22 10L25 10L25 9L26 9L26 8L25 8L25 5L26 5L26 4L25 4L25 3L26 3L26 2L25 2L25 0L24 0L24 1L23 1L23 0L21 0L21 2L19 2L19 1L18 1L18 2L17 2L17 1L15 1L15 0ZM33 0L33 1L34 1L34 0ZM45 1L45 2L46 2L46 3L44 3L44 4L43 4L43 5L42 5L42 2L41 2L41 3L40 3L40 5L39 5L39 7L40 7L40 6L41 6L41 8L40 8L40 11L37 11L37 10L39 10L39 9L38 9L38 8L37 8L37 7L36 7L36 6L35 6L35 8L37 8L37 10L35 10L35 9L32 9L32 10L31 10L31 12L28 12L28 13L30 13L30 14L29 14L29 15L30 15L30 16L29 16L29 17L28 17L28 19L27 19L27 21L25 21L25 20L26 20L26 19L25 19L25 20L23 20L23 21L22 21L22 20L21 20L21 21L20 21L20 24L21 24L21 23L23 23L23 24L22 24L22 25L23 25L23 24L25 24L25 26L27 26L27 27L25 27L25 28L26 28L26 29L25 29L25 31L26 31L26 33L27 33L27 31L28 31L28 32L29 32L29 31L30 31L30 29L31 29L31 28L30 28L30 26L32 26L32 25L30 25L30 24L29 24L29 23L30 23L30 21L31 21L31 24L33 24L33 26L35 26L35 23L36 23L36 24L37 24L37 22L39 22L39 23L38 23L38 25L37 25L37 26L39 26L39 24L40 24L40 25L41 25L41 24L42 24L42 23L44 23L44 25L43 25L43 26L42 26L42 27L45 27L45 28L43 28L43 30L42 30L42 32L41 32L41 31L40 31L40 29L42 29L42 28L40 28L40 27L41 27L41 26L40 26L40 27L37 27L37 28L40 28L40 29L37 29L37 30L39 30L39 31L40 31L40 32L37 32L37 35L36 35L36 34L35 34L35 36L37 36L37 35L38 35L38 37L37 37L37 38L39 38L39 40L38 40L38 39L37 39L37 41L35 41L35 40L36 40L36 37L34 37L34 36L33 36L33 35L32 35L32 36L33 36L33 37L32 37L32 38L30 38L30 39L29 39L29 41L27 41L27 40L28 40L28 39L27 39L27 40L26 40L26 38L25 38L25 40L26 40L26 41L25 41L25 42L24 42L24 43L22 43L22 42L21 42L21 41L20 41L20 42L19 42L19 41L18 41L18 43L17 43L17 41L16 41L16 45L17 45L17 48L18 48L18 47L20 47L20 46L19 46L19 45L24 45L24 46L21 46L21 47L22 47L22 49L25 49L25 50L24 50L24 51L23 51L23 52L24 52L24 53L25 53L25 54L24 54L24 55L25 55L25 54L26 54L26 55L27 55L27 56L29 56L29 54L30 54L30 56L31 56L31 55L32 55L32 56L34 56L34 55L35 55L35 58L36 58L36 60L35 60L35 63L36 63L36 62L39 62L39 61L38 61L38 60L37 60L37 59L38 59L38 58L39 58L39 60L40 60L40 63L41 63L41 64L44 64L44 63L45 63L45 62L47 62L47 60L46 60L46 59L45 59L45 60L44 60L44 58L41 58L41 56L40 56L40 58L39 58L39 56L38 56L38 55L37 55L37 56L38 56L38 58L37 58L37 57L36 57L36 55L35 55L35 53L36 53L36 52L37 52L37 54L40 54L40 55L41 55L41 54L42 54L42 55L43 55L43 56L44 56L44 57L45 57L45 58L47 58L47 57L48 57L48 56L49 56L49 58L48 58L48 60L49 60L49 59L50 59L50 58L51 58L51 57L50 57L50 56L52 56L52 59L56 59L56 58L54 58L54 57L53 57L53 56L52 56L52 55L50 55L50 54L53 54L53 55L55 55L55 54L54 54L54 53L53 53L53 52L51 52L51 51L50 51L50 50L51 50L51 49L53 49L53 50L52 50L52 51L57 51L57 50L56 50L56 48L55 48L55 47L56 47L56 46L57 46L57 45L56 45L56 44L55 44L55 47L54 47L54 46L53 46L53 45L54 45L54 43L56 43L56 42L57 42L57 43L59 43L59 41L60 41L60 40L57 40L57 39L60 39L60 38L59 38L59 36L58 36L58 35L56 35L56 33L55 33L55 34L53 34L53 32L52 32L52 30L51 30L51 28L52 28L52 29L53 29L53 31L55 31L55 32L56 32L56 30L57 30L57 29L58 29L58 30L61 30L61 29L59 29L59 28L60 28L60 27L59 27L59 26L60 26L60 25L58 25L58 24L61 24L61 23L62 23L62 21L61 21L61 23L58 23L58 24L57 24L57 25L56 25L56 24L55 24L55 25L56 25L56 26L54 26L54 29L53 29L53 28L52 28L52 27L53 27L53 24L54 24L54 23L56 23L56 22L60 22L60 20L63 20L63 21L64 21L64 20L63 20L63 19L59 19L59 20L57 20L57 19L58 19L58 18L59 18L59 17L58 17L58 16L57 16L57 15L58 15L58 14L57 14L57 13L56 13L56 14L53 14L53 13L54 13L54 12L52 12L52 15L54 15L54 16L55 16L55 17L56 17L56 18L54 18L54 20L57 20L57 21L55 21L55 22L54 22L54 21L53 21L53 20L51 20L51 19L53 19L53 16L51 16L51 15L50 15L50 14L51 14L51 11L50 11L50 12L49 12L49 15L48 15L48 13L47 13L47 11L46 11L46 13L45 13L45 12L43 12L43 14L42 14L42 16L38 16L38 18L39 18L39 19L41 19L41 20L38 20L38 21L37 21L37 22L34 22L34 21L33 21L33 20L34 20L34 19L35 19L35 20L37 20L37 16L36 16L36 15L37 15L37 14L40 14L40 15L41 15L41 12L40 12L40 11L43 11L43 10L41 10L41 9L43 9L43 8L42 8L42 6L43 6L43 7L44 7L44 6L45 6L45 7L46 7L46 8L47 8L47 7L48 7L48 6L49 6L49 7L50 7L50 6L49 6L49 5L48 5L48 3L49 3L49 2L50 2L50 1L47 1L47 2L46 2L46 1ZM37 2L37 3L38 3L38 2ZM52 2L52 3L53 3L53 2ZM17 3L17 4L18 4L18 3ZM46 3L46 4L47 4L47 3ZM28 4L28 6L29 6L29 7L30 7L30 4ZM44 4L44 5L45 5L45 6L46 6L46 7L47 7L47 5L45 5L45 4ZM31 5L31 8L34 8L34 5ZM41 5L41 6L42 6L42 5ZM9 6L9 7L10 7L10 6ZM11 6L11 7L12 7L12 6ZM22 6L22 7L23 7L23 6ZM32 6L32 7L33 7L33 6ZM56 6L56 7L57 7L57 6ZM29 8L29 9L28 9L28 11L29 11L29 10L30 10L30 8ZM52 8L52 9L54 9L54 8ZM59 8L59 9L60 9L60 8ZM7 10L7 11L6 11L6 12L7 12L7 11L8 11L8 12L9 12L9 10ZM33 10L33 11L32 11L32 12L31 12L31 13L32 13L32 14L33 14L33 15L32 15L32 16L30 16L30 17L32 17L32 16L33 16L33 17L36 17L36 16L35 16L35 14L33 14L33 13L32 13L32 12L33 12L33 11L35 11L35 13L37 13L37 11L35 11L35 10ZM52 10L52 11L55 11L55 12L56 12L56 11L55 11L55 10ZM17 11L17 12L18 12L18 11ZM21 11L21 12L23 12L23 11ZM39 12L39 13L40 13L40 12ZM2 13L2 14L3 14L3 15L2 15L2 16L3 16L3 15L4 15L4 14L3 14L3 13ZM6 13L6 14L8 14L8 15L6 15L6 16L4 16L4 17L5 17L5 18L4 18L4 19L5 19L5 18L7 18L7 19L6 19L6 20L7 20L7 21L5 21L5 22L7 22L7 23L4 23L4 25L3 25L3 26L2 26L2 25L1 25L1 26L2 26L2 28L3 28L3 30L7 30L7 29L9 29L9 32L10 32L10 31L11 31L11 33L10 33L10 34L13 34L13 35L15 35L15 36L16 36L16 35L15 35L15 34L17 34L17 35L18 35L18 34L19 34L19 33L18 33L18 34L17 34L17 33L16 33L16 32L15 32L15 31L14 31L14 32L13 32L13 30L14 30L14 28L15 28L15 27L16 27L16 26L17 26L17 25L18 25L18 21L19 21L19 19L22 19L22 18L21 18L21 17L20 17L20 16L19 16L19 17L20 17L20 18L18 18L18 17L16 17L16 16L18 16L18 14L19 14L19 15L20 15L20 14L19 14L19 13L16 13L16 14L15 14L15 15L16 15L16 16L15 16L15 17L14 17L14 16L11 16L11 17L10 17L10 18L11 18L11 19L10 19L10 20L8 20L8 18L9 18L9 16L8 16L8 15L9 15L9 14L8 14L8 13ZM44 13L44 14L45 14L45 17L43 17L43 16L42 16L42 17L41 17L41 18L42 18L42 20L43 20L43 21L42 21L42 22L41 22L41 23L40 23L40 24L41 24L41 23L42 23L42 22L43 22L43 21L44 21L44 19L43 19L43 18L46 18L46 19L47 19L47 18L46 18L46 14L45 14L45 13ZM27 15L27 16L26 16L26 17L25 17L25 18L26 18L26 17L27 17L27 16L28 16L28 15ZM47 15L47 16L48 16L48 19L49 19L49 16L50 16L50 15L49 15L49 16L48 16L48 15ZM64 15L64 16L65 16L65 15ZM6 16L6 17L7 17L7 18L8 18L8 17L7 17L7 16ZM11 17L11 18L12 18L12 20L14 20L14 21L13 21L13 22L11 22L11 20L10 20L10 21L9 21L9 23L10 23L10 22L11 22L11 23L12 23L12 25L11 25L11 24L10 24L10 25L9 25L9 26L8 26L8 25L7 25L7 24L6 24L6 25L4 25L4 26L3 26L3 28L6 28L6 29L7 29L7 28L6 28L6 27L9 27L9 29L10 29L10 30L13 30L13 28L12 28L12 25L14 25L14 27L15 27L15 25L17 25L17 21L18 21L18 20L17 20L17 21L16 21L16 20L14 20L14 19L16 19L16 17L15 17L15 18L12 18L12 17ZM39 17L39 18L40 18L40 17ZM51 17L51 18L50 18L50 19L51 19L51 18L52 18L52 17ZM61 17L61 18L63 18L63 17ZM2 18L2 19L3 19L3 18ZM17 18L17 19L18 19L18 18ZM23 18L23 19L24 19L24 18ZM29 18L29 20L28 20L28 21L29 21L29 20L31 20L31 19L32 19L32 20L33 20L33 19L34 19L34 18L33 18L33 19L32 19L32 18ZM35 18L35 19L36 19L36 18ZM1 20L1 22L2 22L2 21L4 21L4 20ZM47 20L47 21L48 21L48 22L46 22L46 23L48 23L48 25L47 25L47 26L46 26L46 27L47 27L47 26L49 26L49 27L52 27L52 24L53 24L53 23L54 23L54 22L52 22L52 21L51 21L51 22L52 22L52 24L51 24L51 23L49 23L49 20ZM7 21L7 22L8 22L8 21ZM14 21L14 22L16 22L16 21ZM21 21L21 22L22 22L22 21ZM24 21L24 23L26 23L26 22L25 22L25 21ZM32 21L32 22L33 22L33 23L34 23L34 22L33 22L33 21ZM15 23L15 24L16 24L16 23ZM27 24L27 25L29 25L29 26L30 26L30 25L29 25L29 24ZM45 24L45 25L46 25L46 24ZM50 24L50 25L49 25L49 26L51 26L51 24ZM6 25L6 26L4 26L4 27L6 27L6 26L7 26L7 25ZM10 25L10 26L9 26L9 27L10 27L10 28L11 28L11 29L12 29L12 28L11 28L11 27L10 27L10 26L11 26L11 25ZM57 25L57 27L56 27L56 29L57 29L57 27L58 27L58 25ZM27 27L27 28L28 28L28 27ZM33 27L33 28L32 28L32 30L35 30L35 29L36 29L36 27L35 27L35 28L34 28L34 27ZM33 28L33 29L34 29L34 28ZM45 28L45 29L47 29L47 28ZM48 28L48 30L46 30L46 31L43 31L43 33L39 33L39 34L40 34L40 35L39 35L39 36L41 36L41 37L42 37L42 38L44 38L44 40L45 40L45 41L47 41L47 42L45 42L45 43L44 43L44 41L41 41L41 42L43 42L43 43L42 43L42 44L43 44L43 43L44 43L44 44L45 44L45 43L47 43L47 45L49 45L49 46L48 46L48 47L49 47L49 48L47 48L47 50L46 50L46 47L47 47L47 46L43 46L43 45L40 45L40 44L41 44L41 43L40 43L40 40L43 40L43 39L40 39L40 40L39 40L39 42L38 42L38 41L37 41L37 42L38 42L38 43L37 43L37 44L36 44L36 43L35 43L35 44L34 44L34 45L33 45L33 46L35 46L35 47L33 47L33 48L32 48L32 49L30 49L30 48L31 48L31 47L32 47L32 46L31 46L31 45L32 45L32 44L33 44L33 43L34 43L34 42L32 42L32 41L34 41L34 40L35 40L35 39L33 39L33 40L31 40L31 39L30 39L30 40L31 40L31 44L30 44L30 46L31 46L31 47L29 47L29 45L28 45L28 44L29 44L29 43L30 43L30 42L29 42L29 43L27 43L27 45L26 45L26 42L25 42L25 43L24 43L24 45L26 45L26 46L27 46L27 47L28 47L28 48L27 48L27 49L26 49L26 48L25 48L25 49L26 49L26 50L25 50L25 51L24 51L24 52L25 52L25 53L29 53L29 52L30 52L30 53L31 53L31 52L32 52L32 53L34 53L34 52L36 52L36 50L35 50L35 51L34 51L34 52L32 52L32 51L29 51L29 50L32 50L32 49L33 49L33 48L35 48L35 49L36 49L36 48L38 48L38 49L37 49L37 50L39 50L39 51L40 51L40 52L41 52L41 53L40 53L40 54L41 54L41 53L42 53L42 54L43 54L43 55L44 55L44 56L45 56L45 55L46 55L46 57L47 57L47 56L48 56L48 54L43 54L43 53L44 53L44 52L47 52L47 53L49 53L49 54L50 54L50 53L49 53L49 52L47 52L47 50L48 50L48 51L49 51L49 50L50 50L50 49L49 49L49 48L53 48L53 49L54 49L54 50L55 50L55 48L54 48L54 47L52 47L52 44L53 44L53 43L52 43L52 42L56 42L56 41L57 41L57 40L56 40L56 38L58 38L58 37L54 37L54 36L56 36L56 35L54 35L54 36L53 36L53 35L52 35L52 34L51 34L51 35L50 35L50 37L49 37L49 36L48 36L48 35L49 35L49 34L50 34L50 33L49 33L49 32L48 32L48 34L46 34L46 31L49 31L49 30L50 30L50 29L49 29L49 28ZM23 29L23 30L24 30L24 29ZM26 29L26 30L28 30L28 29ZM54 29L54 30L55 30L55 29ZM5 31L5 34L8 34L8 31ZM31 31L31 34L34 34L34 31ZM57 31L57 34L60 34L60 31ZM1 32L1 34L2 34L2 32ZM6 32L6 33L7 33L7 32ZM24 32L24 33L25 33L25 32ZM32 32L32 33L33 33L33 32ZM35 32L35 33L36 33L36 32ZM44 32L44 33L43 33L43 34L41 34L41 35L43 35L43 37L44 37L44 38L47 38L47 37L45 37L45 36L44 36L44 35L46 35L46 36L47 36L47 35L46 35L46 34L44 34L44 33L45 33L45 32ZM58 32L58 33L59 33L59 32ZM3 33L3 36L2 36L2 37L4 37L4 39L3 39L3 38L2 38L2 39L3 39L3 40L5 40L5 41L4 41L4 42L5 42L5 41L6 41L6 42L7 42L7 41L6 41L6 40L7 40L7 39L6 39L6 38L7 38L7 37L8 37L8 38L9 38L9 37L8 37L8 35L6 35L6 36L4 36L4 33ZM30 35L30 37L31 37L31 35ZM64 35L64 38L63 38L63 39L64 39L64 38L65 38L65 35ZM6 36L6 37L5 37L5 38L6 38L6 37L7 37L7 36ZM17 36L17 37L18 37L18 36ZM21 36L21 37L22 37L22 36ZM51 36L51 37L50 37L50 39L48 39L48 40L47 40L47 39L46 39L46 40L47 40L47 41L48 41L48 40L49 40L49 42L51 42L51 40L52 40L52 41L54 41L54 40L52 40L52 39L53 39L53 38L54 38L54 39L55 39L55 38L54 38L54 37L53 37L53 36ZM33 37L33 38L34 38L34 37ZM39 37L39 38L40 38L40 37ZM48 37L48 38L49 38L49 37ZM11 39L11 40L10 40L10 41L12 41L12 42L10 42L10 43L12 43L12 42L14 42L14 44L15 44L15 42L14 42L14 41L13 41L13 40L12 40L12 39ZM55 40L55 41L56 41L56 40ZM0 41L0 42L1 42L1 41ZM47 42L47 43L48 43L48 44L49 44L49 45L50 45L50 46L49 46L49 47L50 47L50 46L51 46L51 44L49 44L49 43L48 43L48 42ZM19 43L19 44L17 44L17 45L19 45L19 44L20 44L20 43ZM21 43L21 44L22 44L22 43ZM38 43L38 45L37 45L37 47L38 47L38 46L39 46L39 47L40 47L40 48L39 48L39 49L43 49L43 50L45 50L45 48L44 48L44 47L43 47L43 46L39 46L39 43ZM1 44L1 45L2 45L2 47L3 47L3 48L7 48L7 47L5 47L5 46L4 46L4 45L3 45L3 44ZM35 44L35 46L36 46L36 44ZM27 45L27 46L28 46L28 45ZM3 46L3 47L4 47L4 46ZM23 47L23 48L24 48L24 47ZM35 47L35 48L36 48L36 47ZM43 48L43 49L44 49L44 48ZM6 49L6 50L7 50L7 51L6 51L6 52L7 52L7 51L8 51L8 50L7 50L7 49ZM20 49L20 50L21 50L21 51L20 51L20 52L21 52L21 53L22 53L22 52L21 52L21 51L22 51L22 50L21 50L21 49ZM27 49L27 52L28 52L28 50L29 50L29 49ZM25 51L25 52L26 52L26 51ZM42 51L42 53L43 53L43 51ZM55 52L55 53L56 53L56 52ZM57 53L57 55L56 55L56 56L55 56L55 57L56 57L56 56L57 56L57 55L59 55L59 53ZM61 53L61 54L60 54L60 56L61 56L61 58L62 58L62 56L63 56L63 55L62 55L62 54L64 54L64 53ZM14 54L14 55L15 55L15 54ZM49 55L49 56L50 56L50 55ZM61 55L61 56L62 56L62 55ZM6 56L6 57L7 57L7 56ZM14 56L14 57L15 57L15 58L14 58L14 59L15 59L15 58L16 58L16 57L17 57L17 56L16 56L16 57L15 57L15 56ZM31 57L31 60L34 60L34 57ZM57 57L57 60L60 60L60 57ZM24 58L24 59L25 59L25 60L26 60L26 59L25 59L25 58ZM32 58L32 59L33 59L33 58ZM40 58L40 60L41 60L41 62L44 62L44 60L43 60L43 59L42 59L42 60L41 60L41 58ZM58 58L58 59L59 59L59 58ZM17 59L17 60L18 60L18 59ZM12 60L12 62L14 62L14 61L13 61L13 60ZM36 60L36 61L37 61L37 60ZM45 60L45 61L46 61L46 60ZM52 60L52 61L53 61L53 60ZM23 61L23 62L24 62L24 61ZM33 61L33 62L34 62L34 61ZM55 61L55 62L54 62L54 63L55 63L55 62L56 62L56 61ZM57 61L57 62L58 62L58 61ZM49 62L49 63L50 63L50 62ZM13 64L13 65L14 65L14 64ZM0 0L0 7L7 7L7 0ZM1 1L1 6L6 6L6 1ZM2 2L2 5L5 5L5 2ZM58 0L58 7L65 7L65 0ZM59 1L59 6L64 6L64 1ZM60 2L60 5L63 5L63 2ZM0 58L0 65L7 65L7 58ZM1 59L1 64L6 64L6 59ZM2 60L2 63L5 63L5 60Z" fill="#000000"/></g></g></svg>
