<?xml version="1.0" encoding="UTF-8"?>
<svg xmlns="http://www.w3.org/2000/svg" version="1.1" width="100" height="100" viewBox="0 0 100 100"><rect x="0" y="0" width="100" height="100" fill="#fefefe"/><g transform="scale(1.37)"><g transform="translate(4,4)"><path fill-rule="evenodd" d="M11 0L11 2L10 2L10 1L8 1L8 2L10 2L10 5L8 5L8 7L9 7L9 6L10 6L10 7L11 7L11 6L10 6L10 5L11 5L11 4L13 4L13 5L12 5L12 7L13 7L13 8L14 8L14 9L13 9L13 11L11 11L11 10L12 10L12 9L11 9L11 8L6 8L6 9L7 9L7 10L6 10L6 11L7 11L7 10L8 10L8 9L10 9L10 10L9 10L9 11L8 11L8 12L5 12L5 11L3 11L3 12L2 12L2 10L5 10L5 8L0 8L0 11L1 11L1 13L0 13L0 16L1 16L1 13L2 13L2 16L3 16L3 13L4 13L4 14L5 14L5 15L4 15L4 17L2 17L2 18L0 18L0 20L1 20L1 21L0 21L0 24L2 24L2 23L1 23L1 21L2 21L2 22L3 22L3 24L4 24L4 22L5 22L5 24L6 24L6 25L7 25L7 26L5 26L5 25L2 25L2 28L0 28L0 29L2 29L2 28L3 28L3 30L1 30L1 31L0 31L0 33L1 33L1 34L2 34L2 33L1 33L1 32L2 32L2 31L3 31L3 30L4 30L4 34L3 34L3 36L1 36L1 35L0 35L0 36L1 36L1 37L3 37L3 36L5 36L5 38L4 38L4 39L5 39L5 38L6 38L6 39L8 39L8 38L9 38L9 39L10 39L10 40L11 40L11 39L12 39L12 40L13 40L13 38L12 38L12 37L13 37L13 36L12 36L12 37L11 37L11 36L9 36L9 29L7 29L7 28L9 28L9 27L10 27L10 24L9 24L9 23L10 23L10 22L12 22L12 23L11 23L11 26L12 26L12 27L14 27L14 28L13 28L13 29L12 29L12 28L11 28L11 29L10 29L10 30L11 30L11 31L10 31L10 32L12 32L12 33L11 33L11 34L10 34L10 35L11 35L11 34L12 34L12 35L13 35L13 34L14 34L14 33L13 33L13 32L12 32L12 31L14 31L14 32L16 32L16 33L19 33L19 34L18 34L18 35L17 35L17 36L15 36L15 37L17 37L17 40L16 40L16 41L15 41L15 38L14 38L14 41L15 41L15 44L14 44L14 43L13 43L13 44L12 44L12 43L11 43L11 42L10 42L10 43L11 43L11 45L10 45L10 44L9 44L9 43L8 43L8 40L4 40L4 41L2 41L2 40L3 40L3 39L0 39L0 47L1 47L1 49L0 49L0 51L1 51L1 49L2 49L2 50L3 50L3 51L2 51L2 52L4 52L4 51L8 51L8 50L9 50L9 49L7 49L7 48L9 48L9 47L7 47L7 46L11 46L11 47L12 47L12 48L11 48L11 50L10 50L10 51L9 51L9 54L8 54L8 52L5 52L5 53L1 53L1 54L2 54L2 55L3 55L3 56L1 56L1 55L0 55L0 56L1 56L1 57L3 57L3 56L4 56L4 57L5 57L5 56L4 56L4 54L5 54L5 55L7 55L7 54L8 54L8 59L9 59L9 60L8 60L8 65L10 65L10 64L9 64L9 62L10 62L10 63L14 63L14 62L16 62L16 61L14 61L14 60L16 60L16 59L17 59L17 58L18 58L18 57L19 57L19 59L18 59L18 60L17 60L17 63L18 63L18 65L19 65L19 63L20 63L20 62L19 62L19 63L18 63L18 61L20 61L20 57L21 57L21 60L22 60L22 58L24 58L24 60L23 60L23 61L24 61L24 62L22 62L22 61L21 61L21 63L24 63L24 65L26 65L26 64L25 64L25 59L26 59L26 58L27 58L27 60L28 60L28 58L27 58L27 57L28 57L28 56L29 56L29 57L30 57L30 60L29 60L29 61L31 61L31 62L30 62L30 63L32 63L32 65L34 65L34 64L36 64L36 65L38 65L38 64L36 64L36 63L37 63L37 60L38 60L38 59L40 59L40 60L39 60L39 62L38 62L38 63L40 63L40 64L41 64L41 63L40 63L40 62L43 62L43 61L44 61L44 59L42 59L42 58L45 58L45 57L47 57L47 59L45 59L45 63L43 63L43 64L47 64L47 65L50 65L50 63L51 63L51 64L53 64L53 65L58 65L58 64L53 64L53 63L54 63L54 62L55 62L55 63L56 63L56 62L57 62L57 63L59 63L59 62L60 62L60 63L61 63L61 62L62 62L62 63L63 63L63 64L62 64L62 65L63 65L63 64L64 64L64 60L65 60L65 59L64 59L64 58L65 58L65 55L63 55L63 56L61 56L61 53L63 53L63 54L65 54L65 53L63 53L63 52L64 52L64 51L63 51L63 52L60 52L60 51L58 51L58 50L59 50L59 49L60 49L60 50L61 50L61 51L62 51L62 49L63 49L63 50L65 50L65 49L64 49L64 48L62 48L62 47L63 47L63 46L64 46L64 45L63 45L63 44L64 44L64 42L65 42L65 41L63 41L63 40L64 40L64 39L63 39L63 40L60 40L60 41L59 41L59 39L57 39L57 38L56 38L56 37L57 37L57 35L58 35L58 38L61 38L61 39L62 39L62 38L65 38L65 37L63 37L63 36L61 36L61 34L62 34L62 33L63 33L63 34L65 34L65 32L64 32L64 31L63 31L63 32L62 32L62 30L64 30L64 29L65 29L65 28L64 28L64 29L63 29L63 28L60 28L60 27L61 27L61 24L60 24L60 23L62 23L62 22L65 22L65 19L63 19L63 18L61 18L61 16L62 16L62 17L63 17L63 16L62 16L62 15L63 15L63 14L64 14L64 10L65 10L65 9L64 9L64 8L63 8L63 9L64 9L64 10L63 10L63 12L62 12L62 13L63 13L63 14L61 14L61 12L59 12L59 10L58 10L58 8L57 8L57 6L56 6L56 7L55 7L55 5L54 5L54 4L56 4L56 5L57 5L57 4L56 4L56 3L57 3L57 1L56 1L56 0L55 0L55 1L56 1L56 3L55 3L55 2L54 2L54 4L53 4L53 6L52 6L52 7L51 7L51 5L49 5L49 3L50 3L50 4L51 4L51 2L52 2L52 3L53 3L53 2L52 2L52 0L51 0L51 2L50 2L50 0L49 0L49 3L47 3L47 5L43 5L43 4L44 4L44 3L45 3L45 4L46 4L46 2L48 2L48 0L47 0L47 1L45 1L45 2L44 2L44 3L41 3L41 1L43 1L43 0L41 0L41 1L37 1L37 0L35 0L35 1L36 1L36 2L35 2L35 3L36 3L36 4L39 4L39 3L41 3L41 5L43 5L43 6L42 6L42 7L43 7L43 6L44 6L44 8L43 8L43 9L42 9L42 8L41 8L41 6L40 6L40 5L37 5L37 6L36 6L36 5L35 5L35 4L31 4L31 3L32 3L32 2L33 2L33 1L34 1L34 0L32 0L32 1L31 1L31 0L29 0L29 1L31 1L31 2L28 2L28 1L27 1L27 0L26 0L26 1L27 1L27 2L28 2L28 3L27 3L27 4L30 4L30 5L29 5L29 6L28 6L28 7L27 7L27 6L26 6L26 4L23 4L23 5L25 5L25 6L24 6L24 7L23 7L23 6L22 6L22 5L21 5L21 6L20 6L20 7L19 7L19 5L20 5L20 4L22 4L22 3L19 3L19 1L20 1L20 0L18 0L18 2L17 2L17 0L15 0L15 2L17 2L17 3L18 3L18 4L17 4L17 5L18 5L18 7L17 7L17 6L16 6L16 7L15 7L15 5L16 5L16 4L15 4L15 3L14 3L14 4L13 4L13 2L12 2L12 1L14 1L14 0ZM21 0L21 2L22 2L22 1L23 1L23 2L24 2L24 3L26 3L26 2L25 2L25 0ZM53 0L53 1L54 1L54 0ZM36 2L36 3L37 3L37 2ZM8 3L8 4L9 4L9 3ZM14 4L14 5L13 5L13 7L14 7L14 8L15 8L15 9L16 9L16 10L17 10L17 11L16 11L16 12L15 12L15 11L14 11L14 12L15 12L15 13L14 13L14 14L13 14L13 13L12 13L12 14L13 14L13 15L14 15L14 16L11 16L11 15L9 15L9 14L10 14L10 13L9 13L9 12L8 12L8 15L9 15L9 17L8 17L8 16L7 16L7 15L6 15L6 16L5 16L5 18L7 18L7 19L6 19L6 20L8 20L8 21L5 21L5 20L4 20L4 18L2 18L2 21L3 21L3 22L4 22L4 21L5 21L5 22L7 22L7 23L6 23L6 24L8 24L8 25L9 25L9 24L8 24L8 23L9 23L9 22L8 22L8 21L11 21L11 20L13 20L13 23L12 23L12 26L14 26L14 27L15 27L15 26L16 26L16 27L17 27L17 28L14 28L14 29L13 29L13 30L14 30L14 31L16 31L16 32L17 32L17 30L18 30L18 29L17 29L17 28L18 28L18 26L19 26L19 28L20 28L20 29L19 29L19 30L20 30L20 31L19 31L19 32L21 32L21 33L20 33L20 35L19 35L19 37L20 37L20 40L19 40L19 41L18 41L18 40L17 40L17 41L16 41L16 45L14 45L14 44L13 44L13 45L14 45L14 46L12 46L12 47L13 47L13 49L12 49L12 51L10 51L10 53L12 53L12 51L13 51L13 52L14 52L14 53L15 53L15 54L16 54L16 55L14 55L14 54L10 54L10 57L9 57L9 59L10 59L10 58L11 58L11 60L10 60L10 62L11 62L11 61L12 61L12 62L13 62L13 60L14 60L14 59L15 59L15 57L16 57L16 58L17 58L17 57L18 57L18 53L19 53L19 52L21 52L21 53L20 53L20 54L19 54L19 55L20 55L20 56L21 56L21 57L24 57L24 54L23 54L23 53L24 53L24 51L25 51L25 52L26 52L26 51L25 51L25 50L26 50L26 49L27 49L27 51L28 51L28 52L30 52L30 51L32 51L32 50L33 50L33 52L34 52L34 51L35 51L35 47L36 47L36 48L37 48L37 49L38 49L38 51L39 51L39 53L37 53L37 54L39 54L39 55L36 55L36 52L37 52L37 50L36 50L36 52L35 52L35 53L32 53L32 52L31 52L31 53L32 53L32 55L31 55L31 56L32 56L32 55L36 55L36 56L35 56L35 58L36 58L36 60L35 60L35 61L36 61L36 60L37 60L37 59L38 59L38 58L39 58L39 57L42 57L42 56L39 56L39 55L41 55L41 54L42 54L42 55L45 55L45 52L46 52L46 54L48 54L48 52L49 52L49 51L50 51L50 50L51 50L51 51L52 51L52 50L53 50L53 51L54 51L54 52L55 52L55 54L54 54L54 53L53 53L53 52L50 52L50 53L49 53L49 54L51 54L51 55L47 55L47 57L48 57L48 56L49 56L49 58L51 58L51 59L50 59L50 62L51 62L51 63L53 63L53 61L54 61L54 58L53 58L53 57L54 57L54 55L56 55L56 56L55 56L55 57L56 57L56 56L58 56L58 55L59 55L59 54L60 54L60 52L57 52L57 53L58 53L58 54L57 54L57 55L56 55L56 52L55 52L55 51L57 51L57 50L56 50L56 48L55 48L55 47L56 47L56 46L57 46L57 47L59 47L59 48L58 48L58 49L59 49L59 48L60 48L60 49L62 49L62 48L60 48L60 45L61 45L61 44L63 44L63 41L62 41L62 43L61 43L61 42L60 42L60 43L61 43L61 44L60 44L60 45L59 45L59 42L58 42L58 46L57 46L57 44L55 44L55 45L56 45L56 46L54 46L54 44L52 44L52 47L50 47L50 46L51 46L51 44L49 44L49 42L52 42L52 43L56 43L56 42L57 42L57 41L58 41L58 40L57 40L57 39L56 39L56 38L54 38L54 37L56 37L56 36L54 36L54 37L53 37L53 36L52 36L52 37L49 37L49 39L48 39L48 37L45 37L45 36L44 36L44 37L43 37L43 38L42 38L42 36L43 36L43 35L45 35L45 32L46 32L46 34L47 34L47 35L46 35L46 36L48 36L48 33L47 33L47 32L48 32L48 31L46 31L46 30L47 30L47 29L48 29L48 30L49 30L49 32L50 32L50 34L51 34L51 35L50 35L50 36L51 36L51 35L53 35L53 32L54 32L54 31L55 31L55 33L56 33L56 31L55 31L55 30L54 30L54 31L53 31L53 32L51 32L51 31L52 31L52 30L53 30L53 28L52 28L52 27L55 27L55 29L56 29L56 30L57 30L57 29L58 29L58 30L60 30L60 28L59 28L59 27L55 27L55 26L57 26L57 22L60 22L60 20L63 20L63 21L64 21L64 20L63 20L63 19L60 19L60 17L56 17L56 16L57 16L57 15L58 15L58 16L59 16L59 15L60 15L60 16L61 16L61 14L60 14L60 13L59 13L59 12L58 12L58 10L57 10L57 8L55 8L55 7L54 7L54 6L53 6L53 8L52 8L52 9L51 9L51 7L50 7L50 6L49 6L49 7L48 7L48 6L47 6L47 8L46 8L46 6L45 6L45 8L44 8L44 9L46 9L46 10L45 10L45 12L44 12L44 11L43 11L43 10L41 10L41 8L37 8L37 7L38 7L38 6L37 6L37 7L36 7L36 6L35 6L35 8L37 8L37 10L35 10L35 9L34 9L34 10L33 10L33 9L32 9L32 10L31 10L31 12L30 12L30 14L29 14L29 15L30 15L30 16L28 16L28 15L27 15L27 16L26 16L26 17L25 17L25 14L26 14L26 13L27 13L27 14L28 14L28 13L29 13L29 12L28 12L28 13L27 13L27 11L29 11L29 10L30 10L30 9L28 9L28 8L27 8L27 7L26 7L26 6L25 6L25 7L24 7L24 8L22 8L22 6L21 6L21 9L20 9L20 8L19 8L19 9L18 9L18 10L17 10L17 9L16 9L16 8L17 8L17 7L16 7L16 8L15 8L15 7L14 7L14 5L15 5L15 4ZM31 5L31 8L34 8L34 5ZM29 6L29 7L30 7L30 6ZM32 6L32 7L33 7L33 6ZM39 6L39 7L40 7L40 6ZM24 8L24 9L23 9L23 11L22 11L22 12L24 12L24 13L22 13L22 14L21 14L21 13L19 13L19 12L20 12L20 11L17 11L17 12L18 12L18 13L19 13L19 14L17 14L17 13L16 13L16 14L17 14L17 15L15 15L15 16L14 16L14 17L12 17L12 18L13 18L13 20L14 20L14 19L15 19L15 21L14 21L14 23L13 23L13 24L14 24L14 25L15 25L15 23L16 23L16 25L19 25L19 26L20 26L20 25L19 25L19 24L21 24L21 26L25 26L25 27L28 27L28 28L31 28L31 29L30 29L30 31L29 31L29 32L28 32L28 31L27 31L27 33L26 33L26 31L25 31L25 29L26 29L26 30L28 30L28 29L26 29L26 28L23 28L23 29L21 29L21 31L24 31L24 32L23 32L23 33L22 33L22 34L21 34L21 35L22 35L22 34L23 34L23 35L24 35L24 36L26 36L26 35L25 35L25 33L26 33L26 34L27 34L27 35L28 35L28 36L27 36L27 37L28 37L28 36L29 36L29 37L30 37L30 35L32 35L32 37L31 37L31 40L30 40L30 42L29 42L29 43L27 43L27 45L26 45L26 42L27 42L27 41L29 41L29 40L28 40L28 38L27 38L27 41L26 41L26 39L25 39L25 38L26 38L26 37L23 37L23 38L24 38L24 39L23 39L23 40L24 40L24 43L23 43L23 42L20 42L20 43L19 43L19 42L17 42L17 45L16 45L16 46L15 46L15 47L16 47L16 48L15 48L15 49L16 49L16 48L17 48L17 49L19 49L19 50L20 50L20 49L21 49L21 48L22 48L22 47L21 47L21 46L24 46L24 45L25 45L25 47L26 47L26 46L27 46L27 47L28 47L28 48L27 48L27 49L29 49L29 50L31 50L31 49L30 49L30 46L29 46L29 45L28 45L28 44L29 44L29 43L30 43L30 42L32 42L32 43L31 43L31 45L32 45L32 43L34 43L34 42L32 42L32 41L34 41L34 40L36 40L36 41L35 41L35 43L37 43L37 44L36 44L36 45L35 45L35 44L33 44L33 45L35 45L35 46L38 46L38 47L37 47L37 48L38 48L38 47L39 47L39 48L40 48L40 44L41 44L41 43L42 43L42 45L41 45L41 47L42 47L42 48L41 48L41 49L42 49L42 54L43 54L43 53L44 53L44 52L43 52L43 49L42 49L42 48L45 48L45 50L46 50L46 51L49 51L49 50L50 50L50 49L49 49L49 48L50 48L50 47L49 47L49 46L50 46L50 45L49 45L49 44L48 44L48 42L49 42L49 40L48 40L48 39L47 39L47 38L46 38L46 39L44 39L44 38L45 38L45 37L44 37L44 38L43 38L43 39L42 39L42 41L41 41L41 43L40 43L40 42L37 42L37 40L36 40L36 39L37 39L37 38L36 38L36 37L37 37L37 36L38 36L38 37L39 37L39 38L38 38L38 39L39 39L39 38L40 38L40 37L39 37L39 36L38 36L38 32L40 32L40 30L41 30L41 29L42 29L42 30L43 30L43 31L42 31L42 32L45 32L45 31L44 31L44 28L45 28L45 27L43 27L43 28L41 28L41 27L40 27L40 28L39 28L39 30L38 30L38 29L37 29L37 28L38 28L38 27L39 27L39 26L41 26L41 25L42 25L42 26L43 26L43 25L44 25L44 26L46 26L46 27L47 27L47 26L46 26L46 25L44 25L44 24L46 24L46 23L47 23L47 24L48 24L48 29L49 29L49 30L50 30L50 31L51 31L51 30L50 30L50 27L51 27L51 26L52 26L52 25L51 25L51 24L53 24L53 26L55 26L55 25L54 25L54 22L55 22L55 23L56 23L56 22L55 22L55 21L54 21L54 20L56 20L56 21L57 21L57 20L59 20L59 18L57 18L57 20L56 20L56 19L54 19L54 20L53 20L53 21L54 21L54 22L53 22L53 23L52 23L52 21L51 21L51 22L49 22L49 21L50 21L50 20L47 20L47 21L48 21L48 22L46 22L46 23L44 23L44 20L46 20L46 19L48 19L48 18L50 18L50 19L51 19L51 20L52 20L52 19L53 19L53 18L56 18L56 17L55 17L55 16L56 16L56 13L57 13L57 14L58 14L58 15L59 15L59 14L58 14L58 13L57 13L57 10L56 10L56 9L55 9L55 8L53 8L53 10L56 10L56 13L55 13L55 12L54 12L54 11L51 11L51 10L46 10L46 12L45 12L45 13L44 13L44 12L42 12L42 11L39 11L39 10L38 10L38 11L39 11L39 12L36 12L36 11L35 11L35 10L34 10L34 12L33 12L33 11L32 11L32 12L31 12L31 13L32 13L32 12L33 12L33 14L31 14L31 15L32 15L32 16L30 16L30 17L29 17L29 18L30 18L30 19L29 19L29 20L28 20L28 18L27 18L27 17L28 17L28 16L27 16L27 17L26 17L26 18L25 18L25 17L21 17L21 15L22 15L22 16L24 16L24 15L22 15L22 14L24 14L24 13L26 13L26 10L27 10L27 9L26 9L26 8ZM48 8L48 9L49 9L49 8ZM59 8L59 9L60 9L60 11L61 11L61 10L62 10L62 8L61 8L61 9L60 9L60 8ZM19 9L19 10L20 10L20 9ZM25 9L25 10L24 10L24 11L25 11L25 10L26 10L26 9ZM49 11L49 12L50 12L50 14L49 14L49 13L45 13L45 14L44 14L44 13L43 13L43 14L42 14L42 16L41 16L41 13L42 13L42 12L40 12L40 13L38 13L38 14L39 14L39 15L37 15L37 16L36 16L36 14L37 14L37 13L36 13L36 12L35 12L35 13L34 13L34 15L33 15L33 16L32 16L32 17L31 17L31 18L33 18L33 20L32 20L32 19L31 19L31 20L29 20L29 21L28 21L28 20L27 20L27 21L25 21L25 20L26 20L26 19L25 19L25 20L24 20L24 18L23 18L23 21L22 21L22 20L21 20L21 19L22 19L22 18L21 18L21 17L20 17L20 16L19 16L19 15L20 15L20 14L19 14L19 15L17 15L17 16L19 16L19 17L18 17L18 19L17 19L17 17L14 17L14 18L16 18L16 19L17 19L17 20L16 20L16 21L15 21L15 22L16 22L16 21L17 21L17 22L18 22L18 21L20 21L20 22L19 22L19 23L21 23L21 24L22 24L22 25L24 25L24 24L22 24L22 23L23 23L23 21L25 21L25 23L26 23L26 25L25 25L25 26L26 26L26 25L27 25L27 26L29 26L29 27L30 27L30 26L29 26L29 25L31 25L31 26L32 26L32 25L31 25L31 24L33 24L33 25L34 25L34 26L33 26L33 27L31 27L31 28L32 28L32 29L31 29L31 30L32 30L32 29L33 29L33 30L35 30L35 29L36 29L36 28L37 28L37 26L39 26L39 25L41 25L41 24L39 24L39 23L35 23L35 22L34 22L34 21L33 21L33 20L34 20L34 18L36 18L36 19L35 19L35 21L36 21L36 20L37 20L37 22L39 22L39 21L41 21L41 20L42 20L42 19L43 19L43 20L44 20L44 19L45 19L45 18L48 18L48 17L47 17L47 16L49 16L49 17L50 17L50 18L51 18L51 19L52 19L52 18L53 18L53 16L52 16L52 17L50 17L50 16L51 16L51 15L54 15L54 16L55 16L55 14L52 14L52 13L54 13L54 12L52 12L52 13L51 13L51 12L50 12L50 11ZM4 12L4 13L5 13L5 12ZM6 13L6 14L7 14L7 13ZM35 13L35 14L36 14L36 13ZM45 14L45 15L44 15L44 16L46 16L46 15L47 15L47 14ZM50 14L50 15L51 15L51 14ZM64 15L64 16L65 16L65 15ZM6 16L6 17L7 17L7 16ZM10 16L10 17L11 17L11 16ZM35 16L35 17L36 17L36 16ZM38 16L38 17L37 17L37 18L38 18L38 17L39 17L39 18L40 18L40 17L39 17L39 16ZM42 16L42 17L41 17L41 18L43 18L43 16ZM33 17L33 18L34 18L34 17ZM64 17L64 18L65 18L65 17ZM9 18L9 19L8 19L8 20L10 20L10 18ZM19 19L19 20L20 20L20 21L21 21L21 23L22 23L22 21L21 21L21 20L20 20L20 19ZM39 19L39 20L41 20L41 19ZM3 20L3 21L4 21L4 20ZM17 20L17 21L18 21L18 20ZM31 20L31 21L29 21L29 22L30 22L30 24L31 24L31 23L32 23L32 20ZM61 21L61 22L62 22L62 21ZM26 22L26 23L27 23L27 22ZM33 22L33 24L34 24L34 22ZM40 22L40 23L43 23L43 24L44 24L44 23L43 23L43 22ZM48 22L48 24L49 24L49 26L51 26L51 25L50 25L50 24L51 24L51 23L49 23L49 22ZM17 23L17 24L18 24L18 23ZM58 23L58 26L59 26L59 25L60 25L60 24L59 24L59 23ZM27 24L27 25L29 25L29 24ZM35 24L35 25L36 25L36 26L37 26L37 24ZM62 24L62 25L63 25L63 24ZM0 25L0 27L1 27L1 25ZM64 25L64 26L63 26L63 27L64 27L64 26L65 26L65 25ZM4 26L4 28L5 28L5 30L7 30L7 29L6 29L6 28L7 28L7 27L5 27L5 26ZM34 26L34 27L33 27L33 29L35 29L35 28L36 28L36 27L35 27L35 26ZM21 27L21 28L22 28L22 27ZM40 28L40 29L41 29L41 28ZM46 28L46 29L47 29L47 28ZM51 28L51 29L52 29L52 28ZM56 28L56 29L57 29L57 28ZM14 29L14 30L16 30L16 29ZM23 29L23 30L24 30L24 29ZM61 29L61 30L62 30L62 29ZM36 30L36 31L35 31L35 34L36 34L36 36L35 36L35 35L34 35L34 38L33 38L33 37L32 37L32 40L31 40L31 41L32 41L32 40L33 40L33 39L36 39L36 38L35 38L35 37L36 37L36 36L37 36L37 34L36 34L36 31L38 31L38 30ZM5 31L5 34L8 34L8 31ZM31 31L31 34L34 34L34 31ZM57 31L57 34L60 34L60 31ZM6 32L6 33L7 33L7 32ZM24 32L24 33L25 33L25 32ZM29 32L29 33L28 33L28 35L30 35L30 32ZM32 32L32 33L33 33L33 32ZM58 32L58 33L59 33L59 32ZM61 32L61 33L62 33L62 32ZM40 33L40 36L42 36L42 34L43 34L43 33ZM54 34L54 35L55 35L55 34ZM6 35L6 36L7 36L7 35ZM59 35L59 36L60 36L60 35ZM8 36L8 37L6 37L6 38L8 38L8 37L9 37L9 38L10 38L10 37L9 37L9 36ZM17 36L17 37L18 37L18 36ZM20 36L20 37L22 37L22 36ZM52 37L52 40L54 40L54 39L53 39L53 37ZM21 38L21 40L20 40L20 41L21 41L21 40L22 40L22 38ZM29 38L29 39L30 39L30 38ZM50 38L50 39L51 39L51 38ZM24 39L24 40L25 40L25 39ZM40 39L40 40L41 40L41 39ZM55 39L55 40L56 40L56 41L57 41L57 40L56 40L56 39ZM38 40L38 41L39 41L39 40ZM44 40L44 41L43 41L43 42L44 42L44 43L43 43L43 44L44 44L44 45L45 45L45 46L43 46L43 47L45 47L45 46L47 46L47 47L46 47L46 50L48 50L48 48L49 48L49 47L48 47L48 44L47 44L47 41L48 41L48 40ZM6 41L6 42L5 42L5 43L3 43L3 42L1 42L1 43L2 43L2 44L1 44L1 46L2 46L2 45L3 45L3 48L2 48L2 49L3 49L3 50L7 50L7 49L6 49L6 48L7 48L7 47L6 47L6 46L7 46L7 45L9 45L9 44L8 44L8 43L6 43L6 42L7 42L7 41ZM12 41L12 42L13 42L13 41ZM25 41L25 42L26 42L26 41ZM45 41L45 43L44 43L44 44L45 44L45 45L46 45L46 44L45 44L45 43L46 43L46 41ZM54 41L54 42L55 42L55 41ZM5 43L5 44L6 44L6 45L7 45L7 44L6 44L6 43ZM20 43L20 44L19 44L19 45L18 45L18 47L17 47L17 48L18 48L18 47L20 47L20 46L19 46L19 45L21 45L21 43ZM22 43L22 45L24 45L24 44L23 44L23 43ZM38 43L38 46L39 46L39 44L40 44L40 43ZM27 45L27 46L28 46L28 45ZM31 46L31 47L32 47L32 46ZM33 46L33 48L34 48L34 46ZM4 47L4 48L3 48L3 49L4 49L4 48L6 48L6 47ZM23 47L23 48L24 48L24 47ZM52 47L52 48L53 48L53 47ZM19 48L19 49L20 49L20 48ZM54 48L54 49L53 49L53 50L55 50L55 48ZM22 49L22 51L21 51L21 52L22 52L22 53L21 53L21 54L20 54L20 55L21 55L21 56L23 56L23 55L22 55L22 53L23 53L23 51L24 51L24 50L25 50L25 49ZM39 49L39 50L40 50L40 52L41 52L41 50L40 50L40 49ZM15 50L15 51L14 51L14 52L15 52L15 53L18 53L18 52L16 52L16 50ZM17 50L17 51L18 51L18 50ZM6 53L6 54L7 54L7 53ZM25 53L25 54L27 54L27 55L25 55L25 58L26 58L26 57L27 57L27 56L28 56L28 54L30 54L30 53L28 53L28 54L27 54L27 53ZM51 53L51 54L52 54L52 53ZM53 54L53 55L51 55L51 56L50 56L50 57L51 57L51 58L52 58L52 57L51 57L51 56L53 56L53 55L54 55L54 54ZM29 55L29 56L30 56L30 55ZM6 56L6 57L7 57L7 56ZM11 56L11 57L12 57L12 58L13 58L13 59L14 59L14 57L13 57L13 56ZM16 56L16 57L17 57L17 56ZM36 56L36 57L37 57L37 56ZM44 56L44 57L45 57L45 56ZM63 56L63 57L62 57L62 58L61 58L61 61L60 61L60 62L61 62L61 61L62 61L62 60L63 60L63 59L62 59L62 58L64 58L64 56ZM31 57L31 60L34 60L34 57ZM57 57L57 60L60 60L60 57ZM32 58L32 59L33 59L33 58ZM40 58L40 59L41 59L41 60L40 60L40 61L43 61L43 60L42 60L42 59L41 59L41 58ZM55 58L55 59L56 59L56 58ZM58 58L58 59L59 59L59 58ZM48 59L48 60L46 60L46 62L47 62L47 64L49 64L49 63L48 63L48 62L47 62L47 61L48 61L48 60L49 60L49 59ZM52 59L52 60L51 60L51 61L52 61L52 60L53 60L53 59ZM26 61L26 62L28 62L28 61ZM32 61L32 63L33 63L33 64L34 64L34 63L33 63L33 62L34 62L34 61ZM55 61L55 62L56 62L56 61ZM35 62L35 63L36 63L36 62ZM15 63L15 64L14 64L14 65L17 65L17 64L16 64L16 63ZM27 63L27 65L31 65L31 64L28 64L28 63ZM11 64L11 65L13 65L13 64ZM20 64L20 65L22 65L22 64ZM59 64L59 65L61 65L61 64ZM0 0L0 7L7 7L7 0ZM1 1L1 6L6 6L6 1ZM2 2L2 5L5 5L5 2ZM58 0L58 7L65 7L65 0ZM59 1L59 6L64 6L64 1ZM60 2L60 5L63 5L63 2ZM0 58L0 65L7 65L7 58ZM1 59L1 64L6 64L6 59ZM2 60L2 63L5 63L5 60Z" fill="#000000"/></g></g></svg>
