<?xml version="1.0" encoding="UTF-8"?>
<svg xmlns="http://www.w3.org/2000/svg" version="1.1" width="100" height="100" viewBox="0 0 100 100"><rect x="0" y="0" width="100" height="100" fill="#fefefe"/><g transform="scale(1.37)"><g transform="translate(4,4)"><path fill-rule="evenodd" d="M10 0L10 1L11 1L11 2L12 2L12 1L15 1L15 2L14 2L14 5L13 5L13 4L11 4L11 3L10 3L10 2L9 2L9 1L8 1L8 2L9 2L9 3L8 3L8 4L11 4L11 5L8 5L8 7L9 7L9 8L6 8L6 9L5 9L5 8L0 8L0 9L1 9L1 12L0 12L0 14L1 14L1 12L2 12L2 15L4 15L4 14L6 14L6 15L7 15L7 16L1 16L1 17L5 17L5 18L3 18L3 22L2 22L2 21L1 21L1 22L0 22L0 24L1 24L1 25L2 25L2 24L3 24L3 25L4 25L4 23L3 23L3 22L6 22L6 23L5 23L5 26L6 26L6 27L7 27L7 28L5 28L5 27L3 27L3 26L2 26L2 27L1 27L1 26L0 26L0 29L2 29L2 27L3 27L3 28L5 28L5 29L4 29L4 34L3 34L3 33L2 33L2 32L3 32L3 31L1 31L1 34L0 34L0 37L1 37L1 34L3 34L3 35L2 35L2 38L0 38L0 39L2 39L2 40L3 40L3 41L4 41L4 43L5 43L5 44L6 44L6 45L7 45L7 44L8 44L8 46L6 46L6 47L5 47L5 48L3 48L3 49L2 49L2 47L4 47L4 46L1 46L1 45L2 45L2 44L3 44L3 45L4 45L4 44L3 44L3 43L1 43L1 40L0 40L0 43L1 43L1 44L0 44L0 46L1 46L1 47L0 47L0 48L1 48L1 49L0 49L0 51L1 51L1 49L2 49L2 50L4 50L4 49L5 49L5 48L6 48L6 49L7 49L7 50L5 50L5 51L4 51L4 52L5 52L5 53L3 53L3 52L0 52L0 54L2 54L2 55L3 55L3 56L1 56L1 55L0 55L0 56L1 56L1 57L3 57L3 56L4 56L4 57L5 57L5 56L4 56L4 54L5 54L5 55L7 55L7 56L6 56L6 57L7 57L7 56L9 56L9 55L10 55L10 57L8 57L8 59L10 59L10 60L11 60L11 61L9 61L9 60L8 60L8 65L9 65L9 63L10 63L10 65L15 65L15 64L14 64L14 63L13 63L13 64L12 64L12 62L13 62L13 61L12 61L12 60L14 60L14 61L16 61L16 62L15 62L15 63L16 63L16 65L19 65L19 64L20 64L20 65L22 65L22 63L21 63L21 62L24 62L24 61L26 61L26 62L27 62L27 63L28 63L28 64L27 64L27 65L28 65L28 64L29 64L29 65L33 65L33 64L34 64L34 63L32 63L32 62L34 62L34 61L35 61L35 60L36 60L36 62L35 62L35 63L36 63L36 64L35 64L35 65L36 65L36 64L38 64L38 65L39 65L39 62L38 62L38 63L37 63L37 60L38 60L38 59L39 59L39 61L40 61L40 60L41 60L41 59L39 59L39 58L38 58L38 57L39 57L39 56L43 56L43 57L41 57L41 58L43 58L43 59L42 59L42 60L43 60L43 61L41 61L41 62L43 62L43 61L44 61L44 62L45 62L45 63L44 63L44 64L45 64L45 65L46 65L46 63L47 63L47 62L45 62L45 61L44 61L44 60L45 60L45 59L47 59L47 61L49 61L49 62L50 62L50 63L49 63L49 64L47 64L47 65L49 65L49 64L51 64L51 65L52 65L52 64L53 64L53 65L55 65L55 64L54 64L54 63L56 63L56 65L63 65L63 64L64 64L64 58L65 58L65 57L64 57L64 58L62 58L62 57L63 57L63 56L64 56L64 54L65 54L65 53L64 53L64 52L65 52L65 51L64 51L64 52L61 52L61 53L59 53L59 54L61 54L61 53L63 53L63 56L62 56L62 55L60 55L60 56L59 56L59 55L57 55L57 54L58 54L58 53L57 53L57 52L59 52L59 51L62 51L62 49L63 49L63 50L65 50L65 49L64 49L64 48L61 48L61 47L62 47L62 45L63 45L63 46L64 46L64 45L65 45L65 44L61 44L61 43L62 43L62 42L63 42L63 43L64 43L64 42L65 42L65 41L64 41L64 38L65 38L65 36L61 36L61 37L58 37L58 36L60 36L60 35L61 35L61 34L62 34L62 33L63 33L63 34L65 34L65 33L63 33L63 32L61 32L61 30L58 30L58 29L59 29L59 28L55 28L55 27L56 27L56 25L60 25L60 29L63 29L63 30L64 30L64 29L65 29L65 28L64 28L64 29L63 29L63 28L61 28L61 26L62 26L62 27L64 27L64 26L65 26L65 25L64 25L64 26L63 26L63 25L61 25L61 24L58 24L58 23L62 23L62 21L63 21L63 20L60 20L60 22L58 22L58 23L57 23L57 22L56 22L56 23L57 23L57 24L55 24L55 23L52 23L52 24L51 24L51 26L50 26L50 27L49 27L49 25L50 25L50 23L51 23L51 22L48 22L48 21L50 21L50 20L56 20L56 21L57 21L57 19L63 19L63 18L65 18L65 17L63 17L63 16L62 16L62 17L63 17L63 18L61 18L61 16L60 16L60 15L59 15L59 14L58 14L58 13L57 13L57 11L58 11L58 12L59 12L59 13L61 13L61 14L62 14L62 15L63 15L63 14L64 14L64 10L65 10L65 9L64 9L64 8L63 8L63 9L64 9L64 10L62 10L62 8L61 8L61 9L60 9L60 8L59 8L59 9L60 9L60 10L57 10L57 11L56 11L56 13L57 13L57 14L58 14L58 15L59 15L59 17L60 17L60 18L56 18L56 19L52 19L52 18L50 18L50 15L51 15L51 14L52 14L52 16L53 16L53 18L55 18L55 16L56 16L56 17L57 17L57 16L56 16L56 15L55 15L55 16L53 16L53 15L54 15L54 14L55 14L55 10L56 10L56 9L58 9L58 8L57 8L57 6L56 6L56 7L55 7L55 5L54 5L54 4L56 4L56 5L57 5L57 4L56 4L56 3L57 3L57 1L56 1L56 0L55 0L55 1L56 1L56 3L55 3L55 2L54 2L54 4L53 4L53 5L52 5L52 4L51 4L51 5L50 5L50 7L51 7L51 5L52 5L52 8L50 8L50 9L51 9L51 10L49 10L49 3L47 3L47 4L48 4L48 5L46 5L46 3L45 3L45 6L44 6L44 7L43 7L43 6L42 6L42 5L43 5L43 4L44 4L44 2L43 2L43 1L46 1L46 2L47 2L47 1L46 1L46 0L42 0L42 5L41 5L41 6L40 6L40 8L38 8L38 9L39 9L39 10L38 10L38 11L37 11L37 8L36 8L36 7L37 7L37 6L38 6L38 7L39 7L39 5L37 5L37 4L39 4L39 3L41 3L41 2L39 2L39 1L40 1L40 0L39 0L39 1L38 1L38 0L37 0L37 1L38 1L38 2L37 2L37 3L35 3L35 2L36 2L36 1L35 1L35 0L34 0L34 1L33 1L33 0L32 0L32 1L33 1L33 3L31 3L31 2L29 2L29 3L28 3L28 4L29 4L29 3L30 3L30 5L29 5L29 6L28 6L28 7L29 7L29 8L27 8L27 9L26 9L26 10L25 10L25 8L23 8L23 6L22 6L22 4L23 4L23 3L25 3L25 4L24 4L24 7L25 7L25 6L26 6L26 7L27 7L27 5L25 5L25 4L27 4L27 2L28 2L28 0L26 0L26 1L25 1L25 0L22 0L22 2L19 2L19 4L18 4L18 3L16 3L16 2L18 2L18 1L17 1L17 0L16 0L16 1L15 1L15 0L12 0L12 1L11 1L11 0ZM19 0L19 1L20 1L20 0ZM30 0L30 1L31 1L31 0ZM48 0L48 2L49 2L49 1L50 1L50 2L51 2L51 3L53 3L53 2L51 2L51 1L52 1L52 0L51 0L51 1L50 1L50 0ZM53 0L53 1L54 1L54 0ZM23 1L23 2L24 2L24 1ZM34 1L34 2L35 2L35 1ZM25 2L25 3L26 3L26 2ZM15 3L15 4L16 4L16 3ZM21 3L21 4L20 4L20 6L19 6L19 7L20 7L20 8L19 8L19 9L18 9L18 4L17 4L17 9L18 9L18 10L15 10L15 11L17 11L17 12L18 12L18 11L19 11L19 10L20 10L20 13L18 13L18 15L17 15L17 14L16 14L16 12L14 12L14 15L17 15L17 18L16 18L16 16L15 16L15 17L14 17L14 16L10 16L10 15L13 15L13 13L10 13L10 12L11 12L11 11L12 11L12 12L13 12L13 11L14 11L14 10L13 10L13 7L14 7L14 8L15 8L15 9L16 9L16 6L15 6L15 5L14 5L14 6L13 6L13 5L12 5L12 6L11 6L11 7L10 7L10 6L9 6L9 7L10 7L10 8L9 8L9 10L8 10L8 9L6 9L6 10L5 10L5 11L6 11L6 12L5 12L5 13L6 13L6 14L8 14L8 15L9 15L9 16L8 16L8 18L7 18L7 17L6 17L6 18L7 18L7 19L5 19L5 21L6 21L6 22L7 22L7 23L6 23L6 24L7 24L7 25L6 25L6 26L8 26L8 25L12 25L12 26L10 26L10 28L7 28L7 29L5 29L5 30L8 30L8 29L9 29L9 32L10 32L10 31L11 31L11 30L10 30L10 28L11 28L11 29L12 29L12 26L13 26L13 25L14 25L14 27L13 27L13 30L14 30L14 29L15 29L15 30L16 30L16 29L17 29L17 32L18 32L18 30L19 30L19 31L20 31L20 30L19 30L19 29L21 29L21 30L22 30L22 32L21 32L21 33L20 33L20 34L18 34L18 33L14 33L14 31L12 31L12 32L13 32L13 33L14 33L14 35L15 35L15 36L18 36L18 37L15 37L15 40L13 40L13 39L12 39L12 37L14 37L14 36L11 36L11 34L10 34L10 36L9 36L9 37L8 37L8 36L7 36L7 35L6 35L6 36L5 36L5 37L3 37L3 38L7 38L7 39L6 39L6 40L5 40L5 41L6 41L6 42L7 42L7 43L6 43L6 44L7 44L7 43L10 43L10 44L9 44L9 45L10 45L10 44L11 44L11 43L12 43L12 42L10 42L10 41L16 41L16 42L14 42L14 43L13 43L13 44L14 44L14 45L16 45L16 46L15 46L15 47L16 47L16 48L17 48L17 46L20 46L20 47L19 47L19 49L18 49L18 50L17 50L17 49L15 49L15 50L14 50L14 51L13 51L13 48L12 48L12 47L11 47L11 49L12 49L12 51L11 51L11 50L9 50L9 49L10 49L10 46L9 46L9 47L6 47L6 48L7 48L7 49L8 49L8 50L7 50L7 51L6 51L6 52L7 52L7 53L5 53L5 54L11 54L11 57L10 57L10 59L14 59L14 57L15 57L15 56L17 56L17 57L16 57L16 59L15 59L15 60L16 60L16 61L17 61L17 64L18 64L18 63L20 63L20 62L19 62L19 61L24 61L24 60L23 60L23 59L22 59L22 58L23 58L23 57L24 57L24 56L26 56L26 57L25 57L25 58L24 58L24 59L25 59L25 58L26 58L26 61L27 61L27 62L28 62L28 61L29 61L29 60L30 60L30 59L29 59L29 58L30 58L30 57L28 57L28 56L26 56L26 54L27 54L27 55L29 55L29 56L30 56L30 55L31 55L31 54L30 54L30 53L31 53L31 52L33 52L33 53L32 53L32 56L33 56L33 55L35 55L35 56L37 56L37 57L38 57L38 56L39 56L39 55L38 55L38 56L37 56L37 54L40 54L40 55L41 55L41 54L42 54L42 55L43 55L43 56L44 56L44 57L45 57L45 58L51 58L51 59L53 59L53 60L52 60L52 61L51 61L51 60L49 60L49 61L50 61L50 62L51 62L51 63L54 63L54 62L53 62L53 61L54 61L54 59L56 59L56 58L53 58L53 57L54 57L54 56L52 56L52 57L51 57L51 55L53 55L53 54L54 54L54 55L55 55L55 54L57 54L57 53L56 53L56 52L54 52L54 51L55 51L55 50L56 50L56 51L57 51L57 50L56 50L56 49L57 49L57 48L55 48L55 50L53 50L53 47L55 47L55 46L56 46L56 47L57 47L57 46L58 46L58 51L59 51L59 49L61 49L61 48L60 48L60 45L61 45L61 44L58 44L58 45L57 45L57 46L56 46L56 44L55 44L55 43L59 43L59 41L60 41L60 40L61 40L61 39L62 39L62 41L61 41L61 42L60 42L60 43L61 43L61 42L62 42L62 41L63 41L63 39L62 39L62 37L61 37L61 38L60 38L60 40L59 40L59 41L56 41L56 40L58 40L58 39L59 39L59 38L58 38L58 37L57 37L57 39L56 39L56 40L55 40L55 42L54 42L54 45L53 45L53 44L52 44L52 43L53 43L53 40L54 40L54 39L55 39L55 38L54 38L54 37L53 37L53 36L51 36L51 35L50 35L50 34L51 34L51 33L53 33L53 32L51 32L51 31L50 31L50 30L51 30L51 27L50 27L50 28L49 28L49 27L48 27L48 26L47 26L47 25L48 25L48 24L49 24L49 23L48 23L48 24L47 24L47 19L46 19L46 18L48 18L48 16L49 16L49 15L48 15L48 14L49 14L49 13L47 13L47 12L46 12L46 14L47 14L47 16L44 16L44 17L43 17L43 14L45 14L45 12L44 12L44 11L48 11L48 12L49 12L49 10L47 10L47 9L48 9L48 6L47 6L47 9L45 9L45 7L46 7L46 6L45 6L45 7L44 7L44 9L43 9L43 10L42 10L42 11L41 11L41 10L40 10L40 11L41 11L41 12L40 12L40 13L43 13L43 14L39 14L39 11L38 11L38 12L37 12L37 13L36 13L36 11L35 11L35 9L33 9L33 11L35 11L35 12L32 12L32 15L33 15L33 16L32 16L32 17L31 17L31 19L33 19L33 16L34 16L34 15L33 15L33 14L35 14L35 13L36 13L36 14L37 14L37 16L39 16L39 17L37 17L37 18L39 18L39 19L36 19L36 18L35 18L35 17L36 17L36 16L35 16L35 17L34 17L34 20L32 20L32 21L34 21L34 22L33 22L33 23L32 23L32 24L30 24L30 23L31 23L31 21L30 21L30 20L29 20L29 19L30 19L30 17L27 17L27 15L28 15L28 16L30 16L30 15L29 15L29 14L30 14L30 13L31 13L31 12L29 12L29 11L31 11L31 10L32 10L32 9L31 9L31 10L30 10L30 8L29 8L29 9L27 9L27 10L26 10L26 11L25 11L25 16L24 16L24 15L21 15L21 13L22 13L22 14L24 14L24 13L23 13L23 12L24 12L24 10L22 10L22 12L21 12L21 9L23 9L23 8L21 8L21 7L22 7L22 6L21 6L21 4L22 4L22 3ZM31 5L31 8L34 8L34 5ZM35 5L35 7L36 7L36 6L37 6L37 5ZM12 6L12 7L13 7L13 6ZM14 6L14 7L15 7L15 6ZM20 6L20 7L21 7L21 6ZM29 6L29 7L30 7L30 6ZM32 6L32 7L33 7L33 6ZM41 6L41 7L42 7L42 6ZM53 6L53 8L52 8L52 11L50 11L50 14L51 14L51 12L52 12L52 13L54 13L54 10L53 10L53 9L54 9L54 6ZM20 8L20 9L21 9L21 8ZM40 8L40 9L42 9L42 8ZM55 8L55 9L56 9L56 8ZM2 9L2 10L4 10L4 9ZM6 10L6 11L7 11L7 10ZM10 10L10 11L8 11L8 12L6 12L6 13L8 13L8 14L10 14L10 13L8 13L8 12L10 12L10 11L11 11L11 10ZM12 10L12 11L13 11L13 10ZM60 10L60 11L59 11L59 12L60 12L60 11L61 11L61 13L62 13L62 12L63 12L63 11L62 11L62 10ZM2 11L2 12L3 12L3 13L4 13L4 11ZM27 11L27 12L28 12L28 11ZM42 11L42 12L43 12L43 11ZM52 11L52 12L53 12L53 11ZM26 13L26 14L28 14L28 13ZM19 14L19 15L18 15L18 17L19 17L19 18L18 18L18 19L17 19L17 20L18 20L18 21L17 21L17 22L18 22L18 23L19 23L19 22L20 22L20 21L19 21L19 20L20 20L20 17L21 17L21 19L22 19L22 18L23 18L23 19L25 19L25 20L26 20L26 19L25 19L25 17L26 17L26 16L25 16L25 17L24 17L24 16L23 16L23 17L22 17L22 16L20 16L20 17L19 17L19 15L20 15L20 14ZM38 14L38 15L39 15L39 14ZM64 15L64 16L65 16L65 15ZM9 16L9 17L10 17L10 16ZM11 17L11 18L10 18L10 23L9 23L9 24L11 24L11 23L12 23L12 25L13 25L13 23L14 23L14 25L15 25L15 24L16 24L16 25L17 25L17 26L15 26L15 27L16 27L16 28L15 28L15 29L16 29L16 28L17 28L17 29L19 29L19 28L20 28L20 27L19 27L19 26L20 26L20 25L21 25L21 24L20 24L20 25L19 25L19 24L18 24L18 25L17 25L17 24L16 24L16 23L14 23L14 22L16 22L16 21L15 21L15 20L16 20L16 18L15 18L15 20L14 20L14 18L13 18L13 19L12 19L12 17ZM41 17L41 18L40 18L40 19L39 19L39 20L41 20L41 19L42 19L42 20L43 20L43 19L42 19L42 18L43 18L43 17ZM44 17L44 18L46 18L46 17ZM0 18L0 20L1 20L1 18ZM8 18L8 19L9 19L9 18ZM49 18L49 19L48 19L48 20L49 20L49 19L50 19L50 18ZM27 19L27 21L29 21L29 23L28 23L28 22L27 22L27 23L28 23L28 24L27 24L27 25L29 25L29 23L30 23L30 21L29 21L29 20L28 20L28 19ZM44 19L44 20L45 20L45 21L46 21L46 19ZM64 19L64 22L63 22L63 23L64 23L64 22L65 22L65 19ZM6 20L6 21L8 21L8 22L9 22L9 20ZM11 20L11 22L12 22L12 21L14 21L14 20ZM21 20L21 21L22 21L22 20ZM35 20L35 21L36 21L36 24L33 24L33 25L37 25L37 24L38 24L38 25L39 25L39 26L37 26L37 27L40 27L40 28L39 28L39 30L37 30L37 28L36 28L36 27L35 27L35 26L33 26L33 27L32 27L32 28L31 28L31 26L32 26L32 25L30 25L30 26L29 26L29 27L27 27L27 29L28 29L28 30L27 30L27 31L25 31L25 33L21 33L21 34L20 34L20 35L19 35L19 36L20 36L20 37L21 37L21 38L22 38L22 37L23 37L23 39L20 39L20 38L19 38L19 37L18 37L18 41L17 41L17 40L16 40L16 41L17 41L17 43L16 43L16 44L17 44L17 45L20 45L20 44L19 44L19 43L20 43L20 41L21 41L21 42L23 42L23 43L24 43L24 44L23 44L23 45L21 45L21 47L22 47L22 46L23 46L23 47L24 47L24 48L25 48L25 49L22 49L22 50L21 50L21 51L22 51L22 50L23 50L23 51L24 51L24 52L26 52L26 51L25 51L25 50L27 50L27 51L28 51L28 52L27 52L27 53L30 53L30 51L32 51L32 49L33 49L33 50L34 50L34 49L35 49L35 50L36 50L36 51L33 51L33 52L34 52L34 53L33 53L33 54L34 54L34 53L35 53L35 52L36 52L36 53L38 53L38 52L41 52L41 50L42 50L42 52L43 52L43 53L42 53L42 54L43 54L43 55L44 55L44 56L45 56L45 57L47 57L47 56L46 56L46 55L49 55L49 52L47 52L47 54L46 54L46 55L45 55L45 54L43 54L43 53L44 53L44 52L45 52L45 51L44 51L44 52L43 52L43 49L44 49L44 48L45 48L45 50L46 50L46 51L48 51L48 49L49 49L49 50L50 50L50 49L49 49L49 48L47 48L47 50L46 50L46 47L47 47L47 46L46 46L46 47L45 47L45 46L44 46L44 44L45 44L45 45L48 45L48 47L49 47L49 46L50 46L50 45L49 45L49 44L45 44L45 41L46 41L46 40L45 40L45 39L47 39L47 40L48 40L48 41L47 41L47 42L46 42L46 43L48 43L48 42L49 42L49 43L52 43L52 40L53 40L53 39L54 39L54 38L49 38L49 40L48 40L48 38L43 38L43 37L44 37L44 36L46 36L46 37L51 37L51 36L50 36L50 35L49 35L49 32L50 32L50 31L49 31L49 28L48 28L48 27L47 27L47 26L46 26L46 27L44 27L44 25L41 25L41 26L43 26L43 27L40 27L40 24L41 24L41 23L42 23L42 24L43 24L43 23L42 23L42 22L44 22L44 24L46 24L46 25L47 25L47 24L46 24L46 23L45 23L45 22L44 22L44 21L42 21L42 22L41 22L41 23L40 23L40 24L39 24L39 22L40 22L40 21L39 21L39 22L37 22L37 21L38 21L38 20ZM23 21L23 22L24 22L24 23L23 23L23 24L25 24L25 25L24 25L24 26L23 26L23 25L22 25L22 26L23 26L23 27L21 27L21 28L23 28L23 27L24 27L24 29L22 29L22 30L24 30L24 29L26 29L26 28L25 28L25 27L24 27L24 26L25 26L25 25L26 25L26 24L25 24L25 22L26 22L26 21ZM54 21L54 22L55 22L55 21ZM1 22L1 24L2 24L2 22ZM52 24L52 25L54 25L54 24ZM18 25L18 26L19 26L19 25ZM52 26L52 27L55 27L55 26ZM58 26L58 27L59 27L59 26ZM17 27L17 28L18 28L18 27ZM33 27L33 28L32 28L32 29L31 29L31 28L28 28L28 29L30 29L30 30L35 30L35 29L36 29L36 28L35 28L35 27ZM43 27L43 28L44 28L44 30L42 30L42 32L41 32L41 28L40 28L40 32L38 32L38 34L39 34L39 33L42 33L42 32L44 32L44 33L43 33L43 34L45 34L45 35L46 35L46 36L49 36L49 35L48 35L48 34L47 34L47 32L49 32L49 31L48 31L48 30L47 30L47 27L46 27L46 29L45 29L45 28L44 28L44 27ZM52 28L52 30L53 30L53 31L54 31L54 32L56 32L56 31L55 31L55 30L53 30L53 29L54 29L54 28ZM56 29L56 30L57 30L57 29ZM45 30L45 31L44 31L44 32L45 32L45 34L46 34L46 35L47 35L47 34L46 34L46 30ZM5 31L5 34L8 34L8 31ZM15 31L15 32L16 32L16 31ZM23 31L23 32L24 32L24 31ZM27 31L27 32L26 32L26 33L25 33L25 34L24 34L24 35L23 35L23 36L24 36L24 37L25 37L25 38L24 38L24 39L25 39L25 42L24 42L24 43L25 43L25 44L26 44L26 45L25 45L25 47L26 47L26 49L27 49L27 50L28 50L28 51L30 51L30 50L31 50L31 49L30 49L30 47L29 47L29 46L30 46L30 45L33 45L33 47L35 47L35 46L36 46L36 44L40 44L40 45L37 45L37 46L39 46L39 48L37 48L37 51L36 51L36 52L37 52L37 51L39 51L39 50L41 50L41 48L40 48L40 45L42 45L42 44L40 44L40 42L41 42L41 40L42 40L42 39L43 39L43 40L44 40L44 41L45 41L45 40L44 40L44 39L43 39L43 38L42 38L42 34L40 34L40 35L39 35L39 36L38 36L38 35L37 35L37 32L36 32L36 31L35 31L35 32L36 32L36 33L35 33L35 34L36 34L36 36L35 36L35 38L33 38L33 37L32 37L32 36L33 36L33 35L32 35L32 36L31 36L31 37L30 37L30 36L29 36L29 37L25 37L25 36L26 36L26 35L25 35L25 34L26 34L26 33L27 33L27 36L28 36L28 34L29 34L29 35L30 35L30 34L29 34L29 33L27 33L27 32L28 32L28 31ZM29 31L29 32L30 32L30 31ZM31 31L31 34L34 34L34 31ZM57 31L57 34L60 34L60 31ZM6 32L6 33L7 33L7 32ZM32 32L32 33L33 33L33 32ZM58 32L58 33L59 33L59 32ZM55 33L55 34L54 34L54 36L55 36L55 37L56 37L56 36L55 36L55 35L56 35L56 33ZM12 34L12 35L13 35L13 34ZM17 34L17 35L18 35L18 34ZM21 34L21 35L20 35L20 36L21 36L21 37L22 37L22 36L21 36L21 35L22 35L22 34ZM52 34L52 35L53 35L53 34ZM3 35L3 36L4 36L4 35ZM24 35L24 36L25 36L25 35ZM40 35L40 36L41 36L41 35ZM57 35L57 36L58 36L58 35ZM6 36L6 37L7 37L7 38L8 38L8 39L7 39L7 40L6 40L6 41L7 41L7 42L8 42L8 41L10 41L10 40L8 40L8 39L10 39L10 38L8 38L8 37L7 37L7 36ZM10 36L10 37L11 37L11 36ZM36 36L36 37L38 37L38 36ZM40 37L40 38L38 38L38 39L37 39L37 38L36 38L36 41L39 41L39 42L37 42L37 43L39 43L39 42L40 42L40 40L41 40L41 39L42 39L42 38L41 38L41 37ZM63 37L63 38L64 38L64 37ZM25 38L25 39L26 39L26 38ZM29 38L29 39L30 39L30 42L32 42L32 41L33 41L33 42L34 42L34 43L33 43L33 44L34 44L34 43L35 43L35 44L36 44L36 42L35 42L35 40L34 40L34 39L33 39L33 40L32 40L32 39L30 39L30 38ZM40 38L40 39L41 39L41 38ZM3 39L3 40L4 40L4 39ZM19 39L19 40L20 40L20 39ZM38 39L38 40L39 40L39 39ZM51 39L51 40L50 40L50 41L49 41L49 42L51 42L51 40L52 40L52 39ZM7 40L7 41L8 41L8 40ZM22 40L22 41L23 41L23 40ZM27 40L27 41L29 41L29 40ZM31 40L31 41L32 41L32 40ZM33 40L33 41L34 41L34 40ZM18 41L18 42L19 42L19 41ZM25 42L25 43L28 43L28 42ZM42 42L42 43L43 43L43 44L44 44L44 42ZM14 43L14 44L15 44L15 43ZM29 43L29 44L32 44L32 43ZM51 44L51 45L52 45L52 47L53 47L53 45L52 45L52 44ZM11 45L11 46L12 46L12 45ZM23 45L23 46L24 46L24 45ZM26 45L26 46L28 46L28 45ZM54 45L54 46L55 46L55 45ZM58 45L58 46L59 46L59 45ZM13 46L13 47L14 47L14 46ZM31 46L31 47L32 47L32 46ZM42 46L42 49L43 49L43 48L44 48L44 46ZM27 47L27 49L29 49L29 48L28 48L28 47ZM33 48L33 49L34 49L34 48ZM35 48L35 49L36 49L36 48ZM39 48L39 49L40 49L40 48ZM19 49L19 50L18 50L18 51L17 51L17 52L15 52L15 53L14 53L14 56L12 56L12 57L11 57L11 58L12 58L12 57L14 57L14 56L15 56L15 55L16 55L16 54L15 54L15 53L17 53L17 54L18 54L18 55L19 55L19 56L18 56L18 57L17 57L17 59L18 59L18 57L19 57L19 58L20 58L20 57L21 57L21 58L22 58L22 57L21 57L21 56L22 56L22 54L21 54L21 55L19 55L19 54L20 54L20 53L22 53L22 52L19 52L19 50L20 50L20 49ZM51 49L51 51L52 51L52 52L53 52L53 53L54 53L54 54L55 54L55 53L54 53L54 52L53 52L53 51L52 51L52 49ZM8 50L8 51L7 51L7 52L10 52L10 53L11 53L11 52L10 52L10 51L9 51L9 50ZM15 50L15 51L16 51L16 50ZM12 51L12 52L13 52L13 51ZM17 52L17 53L18 53L18 52ZM12 53L12 55L13 55L13 53ZM23 53L23 54L26 54L26 53ZM29 54L29 55L30 55L30 54ZM35 54L35 55L36 55L36 54ZM23 55L23 56L24 56L24 55ZM56 55L56 56L55 56L55 57L56 57L56 56L57 56L57 55ZM19 56L19 57L20 57L20 56ZM48 56L48 57L49 57L49 56ZM31 57L31 60L34 60L34 57ZM57 57L57 60L60 60L60 57ZM32 58L32 59L33 59L33 58ZM35 58L35 59L36 59L36 60L37 60L37 59L38 59L38 58ZM58 58L58 59L59 59L59 58ZM61 58L61 59L62 59L62 60L61 60L61 61L60 61L60 62L59 62L59 61L55 61L55 62L56 62L56 63L57 63L57 64L63 64L63 61L62 61L62 60L63 60L63 59L62 59L62 58ZM19 59L19 60L17 60L17 61L19 61L19 60L20 60L20 59ZM21 59L21 60L22 60L22 59ZM27 59L27 61L28 61L28 60L29 60L29 59ZM43 59L43 60L44 60L44 59ZM30 61L30 62L29 62L29 64L30 64L30 62L32 62L32 61ZM10 62L10 63L11 63L11 62ZM60 62L60 63L61 63L61 62ZM23 63L23 64L24 64L24 63ZM31 63L31 64L32 64L32 63ZM41 63L41 64L42 64L42 65L43 65L43 63ZM25 64L25 65L26 65L26 64ZM0 0L0 7L7 7L7 0ZM1 1L1 6L6 6L6 1ZM2 2L2 5L5 5L5 2ZM58 0L58 7L65 7L65 0ZM59 1L59 6L64 6L64 1ZM60 2L60 5L63 5L63 2ZM0 58L0 65L7 65L7 58ZM1 59L1 64L6 64L6 59ZM2 60L2 63L5 63L5 60Z" fill="#000000"/></g></g></svg>
